<?xml version="1.0" encoding="UTF-8"?>
<svg id="Layer_1" data-name="Layer 1" xmlns="http://www.w3.org/2000/svg" viewBox="0 0 876 314.07">
  <defs>
    <style>
      .cls-1 {
        fill: #b40202;
      }

      .cls-2 {
        fill: #8fa802;
      }
    </style>
  </defs>
  <g>
    <polygon class="cls-1" points="117.07 313.94 0 313.96 0 0 117.06 0 117.07 313.94"/>
    <path class="cls-1" d="M232.75,133.91c-14.45,24.09-38.18,39.23-65.68,42.41-7.22.58-13.7.61-21.19-.6V1.82c29.94-4.01,59.03,7.41,78.23,29.91,4.25,5.45,7.53,10.2,10.97,16.19,13.85,27.34,13.32,59.19-2.33,86Z"/>
    <path class="cls-2" d="M241.39,253.98c-1.07.46-2.93.99-4.24,1.27l-15.16-.1-2.5-.12-.85-1.97.29-7.46c-.48-1.52-2.05-3.17-3.76-3.5h-43.32c-1.15.68-2.83,2-3.42,2.65l-.18,10.42-21.51.09-.95-3.24.12-44.11,21.32-.38,1.35,2.27-.29,7.44c.1,1.87,1.58,3.97,3.59,4.44h43.32c2-.16,3.62-2.52,3.65-4.48l-.09-8.61,3.17-.91,17.42-.12,2.06,2.18v44.23Z"/>
    <polygon class="cls-2" points="170.66 308.03 169.97 313.97 146.22 313.82 145.91 292.94 146.39 286.97 170.5 287.16 170.66 308.03"/>
    <polygon class="cls-2" points="239.92 313.73 216.92 314.07 215.52 313.07 215.45 288.56 216.81 286.96 239.94 287.15 239.92 313.73"/>
  </g>
  <g>
    <path d="M386.84,188.9v-81.25h26.33c9.98,0,16.48.41,19.51,1.22,4.66,1.22,8.55,3.87,11.69,7.95,3.14,4.08,4.71,9.36,4.71,15.82,0,4.99-.91,9.18-2.72,12.58-1.81,3.4-4.11,6.07-6.9,8.01s-5.62,3.22-8.51,3.85c-3.92.77-9.59,1.16-17.02,1.16h-10.7v30.65h-16.4ZM403.24,121.39v23.06h8.98c6.46,0,10.79-.42,12.97-1.27,2.18-.85,3.89-2.18,5.13-3.99,1.24-1.81,1.86-3.92,1.86-6.32,0-2.96-.87-5.39-2.61-7.32s-3.93-3.12-6.59-3.6c-1.96-.37-5.89-.55-11.81-.55h-7.93Z"/>
    <path d="M474.64,147.99l-14.13-2.55c1.59-5.69,4.32-9.9,8.2-12.64,3.88-2.73,9.64-4.1,17.29-4.1,6.95,0,12.12.82,15.52,2.47,3.4,1.64,5.79,3.73,7.18,6.26s2.08,7.18,2.08,13.94l-.17,18.18c0,5.17.25,8.99.75,11.44.5,2.46,1.43,5.09,2.8,7.9h-15.41c-.41-1.03-.91-2.57-1.5-4.6-.26-.92-.44-1.53-.55-1.83-2.66,2.59-5.51,4.53-8.54,5.82-3.03,1.29-6.26,1.94-9.7,1.94-6.06,0-10.84-1.64-14.33-4.93-3.49-3.29-5.24-7.44-5.24-12.47,0-3.33.79-6.29,2.38-8.89,1.59-2.6,3.81-4.6,6.68-5.99,2.86-1.38,6.99-2.59,12.39-3.63,7.28-1.37,12.32-2.64,15.13-3.82v-1.55c0-2.99-.74-5.13-2.22-6.4-1.48-1.27-4.27-1.91-8.37-1.91-2.77,0-4.93.55-6.49,1.64-1.55,1.09-2.81,3-3.77,5.74ZM495.48,160.63c-2,.66-5.15,1.46-9.48,2.38-4.32.92-7.15,1.83-8.48,2.72-2.03,1.44-3.05,3.27-3.05,5.49s.81,4.07,2.44,5.65c1.63,1.59,3.69,2.38,6.21,2.38,2.81,0,5.49-.92,8.04-2.77,1.88-1.4,3.12-3.12,3.71-5.15.41-1.33.61-3.86.61-7.59v-3.1Z"/>
    <path d="M553.69,130.04v12.42h-10.64v23.72c0,4.8.1,7.6.31,8.4.2.79.66,1.45,1.39,1.97.72.52,1.6.77,2.63.77,1.44,0,3.53-.5,6.26-1.5l1.33,12.08c-3.62,1.55-7.72,2.33-12.3,2.33-2.81,0-5.34-.47-7.59-1.41s-3.91-2.16-4.96-3.66-1.78-3.52-2.19-6.07c-.33-1.81-.5-5.47-.5-10.97v-25.66h-7.15v-12.42h7.15v-11.69l15.63-9.09v20.78h10.64Z"/>
    <path d="M565.07,122.05v-14.41h15.57v14.41h-15.57ZM565.07,188.9v-58.86h15.57v58.86h-15.57Z"/>
    <path d="M593.57,158.63c0-5.17,1.27-10.18,3.82-15.02,2.55-4.84,6.16-8.53,10.84-11.08,4.67-2.55,9.89-3.82,15.66-3.82,8.9,0,16.2,2.89,21.89,8.67,5.69,5.78,8.53,13.09,8.53,21.92s-2.87,16.29-8.62,22.14c-5.75,5.86-12.98,8.78-21.7,8.78-5.39,0-10.54-1.22-15.43-3.66-4.9-2.44-8.62-6.01-11.17-10.72-2.55-4.71-3.82-10.45-3.82-17.21ZM609.53,159.47c0,5.84,1.38,10.31,4.16,13.41,2.77,3.1,6.19,4.66,10.25,4.66s7.47-1.55,10.22-4.66c2.75-3.1,4.13-7.61,4.13-13.52s-1.38-10.2-4.13-13.3c-2.75-3.1-6.16-4.66-10.22-4.66s-7.48,1.55-10.25,4.66c-2.77,3.1-4.16,7.58-4.16,13.41Z"/>
    <path d="M753.16,188.9h-14.46v-8.65c-2.4,3.36-5.24,5.87-8.51,7.51-3.27,1.64-6.57,2.47-9.89,2.47-6.76,0-12.55-2.72-17.37-8.17s-7.23-13.05-7.23-22.81,2.35-17.56,7.04-22.75c4.69-5.19,10.62-7.79,17.79-7.79,6.58,0,12.27,2.73,17.07,8.2v-29.26h15.57v81.25ZM711.59,158.19c0,6.28.87,10.83,2.6,13.63,2.51,4.07,6.02,6.1,10.53,6.1,3.58,0,6.63-1.52,9.15-4.57,2.51-3.05,3.77-7.6,3.77-13.66,0-6.76-1.22-11.63-3.66-14.6-2.44-2.98-5.56-4.46-9.37-4.46s-6.79,1.47-9.28,4.41c-2.49,2.94-3.74,7.32-3.74,13.16Z"/>
    <path d="M803.16,170.16l15.52,2.6c-1.99,5.69-5.15,10.02-9.45,13-4.3,2.98-9.69,4.46-16.15,4.46-10.24,0-17.81-3.34-22.72-10.03-3.88-5.36-5.82-12.12-5.82-20.28,0-9.75,2.55-17.39,7.65-22.92,5.1-5.52,11.55-8.28,19.34-8.28,8.76,0,15.67,2.89,20.73,8.67,5.06,5.78,7.48,14.64,7.26,26.58h-39.02c.11,4.62,1.37,8.21,3.77,10.78s5.39,3.85,8.98,3.85c2.44,0,4.49-.66,6.15-1.99,1.66-1.33,2.92-3.47,3.77-6.43ZM804.05,154.42c-.11-4.51-1.27-7.93-3.49-10.28-2.22-2.35-4.91-3.52-8.09-3.52-3.4,0-6.21,1.24-8.42,3.71-2.22,2.47-3.31,5.84-3.27,10.09h23.28Z"/>
    <path d="M329.19,312.74v-81.25h24.55l14.74,55.42,14.58-55.42h24.61v81.25h-15.24v-63.96l-16.13,63.96h-15.8l-16.07-63.96v63.96h-15.24Z"/>
    <path d="M436.06,271.84l-14.13-2.55c1.59-5.69,4.32-9.9,8.2-12.64,3.88-2.73,9.64-4.1,17.29-4.1,6.95,0,12.12.82,15.52,2.47,3.4,1.64,5.79,3.73,7.18,6.26s2.08,7.18,2.08,13.94l-.17,18.18c0,5.17.25,8.99.75,11.44.5,2.46,1.43,5.09,2.8,7.9h-15.41c-.41-1.03-.91-2.57-1.5-4.6-.26-.92-.44-1.53-.55-1.83-2.66,2.59-5.51,4.53-8.54,5.82-3.03,1.29-6.26,1.94-9.7,1.94-6.06,0-10.84-1.64-14.33-4.93-3.49-3.29-5.24-7.44-5.24-12.47,0-3.33.79-6.29,2.38-8.89,1.59-2.6,3.81-4.6,6.68-5.99,2.86-1.38,6.99-2.59,12.39-3.63,7.28-1.37,12.32-2.64,15.13-3.82v-1.55c0-2.99-.74-5.13-2.22-6.4-1.48-1.27-4.27-1.91-8.37-1.91-2.77,0-4.93.55-6.49,1.64-1.55,1.09-2.81,3-3.77,5.74ZM456.89,284.48c-2,.66-5.15,1.46-9.48,2.38-4.32.92-7.15,1.83-8.48,2.72-2.03,1.44-3.05,3.27-3.05,5.49s.81,4.07,2.44,5.65c1.63,1.59,3.69,2.38,6.21,2.38,2.81,0,5.49-.92,8.04-2.77,1.88-1.4,3.12-3.12,3.71-5.15.41-1.33.61-3.86.61-7.59v-3.1Z"/>
    <path d="M515.1,253.88v12.42h-10.64v23.72c0,4.8.1,7.6.31,8.4.2.79.66,1.45,1.39,1.97.72.52,1.6.77,2.63.77,1.44,0,3.53-.5,6.26-1.5l1.33,12.08c-3.62,1.55-7.72,2.33-12.3,2.33-2.81,0-5.34-.47-7.59-1.41s-3.91-2.16-4.96-3.66-1.78-3.52-2.19-6.07c-.33-1.81-.5-5.47-.5-10.97v-25.66h-7.15v-12.42h7.15v-11.69l15.63-9.09v20.78h10.64Z"/>
    <path d="M560.56,294.01l15.52,2.6c-2,5.69-5.15,10.02-9.45,13-4.31,2.98-9.69,4.46-16.16,4.46-10.24,0-17.81-3.34-22.72-10.03-3.88-5.36-5.82-12.12-5.82-20.28,0-9.75,2.55-17.39,7.65-22.92,5.1-5.52,11.55-8.28,19.34-8.28,8.76,0,15.66,2.89,20.73,8.67,5.06,5.78,7.48,14.64,7.26,26.58h-39.02c.11,4.62,1.37,8.21,3.77,10.78,2.4,2.57,5.39,3.85,8.98,3.85,2.44,0,4.49-.66,6.15-1.99s2.92-3.47,3.77-6.43ZM561.45,278.27c-.11-4.51-1.27-7.93-3.49-10.28s-4.91-3.52-8.09-3.52c-3.4,0-6.21,1.24-8.42,3.71-2.22,2.47-3.31,5.84-3.27,10.09h23.28Z"/>
    <path d="M605.08,312.74h-15.57v-58.86h14.47v8.37c2.47-3.95,4.7-6.56,6.68-7.81s4.22-1.88,6.74-1.88c3.55,0,6.96.98,10.25,2.94l-4.82,13.58c-2.63-1.7-5.06-2.55-7.32-2.55s-4.03.6-5.54,1.8c-1.52,1.2-2.71,3.37-3.58,6.51-.87,3.14-1.3,9.72-1.3,19.73v18.18Z"/>
    <path d="M634.91,245.9v-14.41h15.57v14.41h-15.57ZM634.91,312.74v-58.86h15.57v58.86h-15.57Z"/>
    <path d="M678.65,271.84l-14.13-2.55c1.59-5.69,4.32-9.9,8.2-12.64,3.88-2.73,9.64-4.1,17.29-4.1,6.95,0,12.12.82,15.52,2.47,3.4,1.64,5.79,3.73,7.18,6.26s2.08,7.18,2.08,13.94l-.17,18.18c0,5.17.25,8.99.75,11.44.5,2.46,1.43,5.09,2.8,7.9h-15.41c-.41-1.03-.91-2.57-1.5-4.6-.26-.92-.44-1.53-.56-1.83-2.66,2.59-5.5,4.53-8.53,5.82s-6.26,1.94-9.7,1.94c-6.06,0-10.83-1.64-14.33-4.93-3.49-3.29-5.24-7.44-5.24-12.47,0-3.33.79-6.29,2.38-8.89s3.82-4.6,6.68-5.99c2.86-1.38,6.99-2.59,12.39-3.63,7.28-1.37,12.32-2.64,15.13-3.82v-1.55c0-2.99-.74-5.13-2.22-6.4-1.48-1.27-4.27-1.91-8.37-1.91-2.77,0-4.93.55-6.48,1.64-1.55,1.09-2.81,3-3.77,5.74ZM699.49,284.48c-2,.66-5.16,1.46-9.48,2.38s-7.15,1.83-8.48,2.72c-2.03,1.44-3.05,3.27-3.05,5.49s.81,4.07,2.44,5.65,3.69,2.38,6.21,2.38c2.81,0,5.49-.92,8.04-2.77,1.88-1.4,3.12-3.12,3.71-5.15.41-1.33.61-3.86.61-7.59v-3.1Z"/>
    <path d="M730.71,312.74v-81.25h15.57v81.25h-15.57Z"/>
    <path d="M796.9,294.01l15.52,2.6c-1.99,5.69-5.15,10.02-9.45,13-4.3,2.98-9.69,4.46-16.15,4.46-10.24,0-17.81-3.34-22.72-10.03-3.88-5.36-5.82-12.12-5.82-20.28,0-9.75,2.55-17.39,7.65-22.92,5.1-5.52,11.55-8.28,19.34-8.28,8.76,0,15.67,2.89,20.73,8.67,5.06,5.78,7.48,14.64,7.26,26.58h-39.02c.11,4.62,1.37,8.21,3.77,10.78s5.39,3.85,8.98,3.85c2.44,0,4.49-.66,6.15-1.99,1.66-1.33,2.92-3.47,3.77-6.43ZM797.79,278.27c-.11-4.51-1.27-7.93-3.49-10.28-2.22-2.35-4.91-3.52-8.09-3.52-3.4,0-6.21,1.24-8.42,3.71-2.22,2.47-3.31,5.84-3.27,10.09h23.28Z"/>
    <path d="M821.02,295.95l15.63-2.38c.66,3.03,2.01,5.33,4.05,6.9,2.03,1.57,4.88,2.35,8.54,2.35,4.02,0,7.06-.74,9.09-2.22,1.37-1.03,2.05-2.42,2.05-4.16,0-1.18-.37-2.16-1.11-2.94-.77-.74-2.51-1.42-5.21-2.05-12.56-2.77-20.53-5.3-23.89-7.59-4.66-3.18-6.98-7.59-6.98-13.25,0-5.1,2.01-9.39,6.04-12.86,4.03-3.47,10.27-5.21,18.73-5.21s14.04,1.31,17.96,3.93c3.92,2.62,6.61,6.5,8.09,11.64l-14.69,2.72c-.63-2.29-1.82-4.05-3.58-5.27-1.76-1.22-4.26-1.83-7.51-1.83-4.1,0-7.04.57-8.81,1.72-1.18.81-1.77,1.86-1.77,3.16,0,1.11.52,2.05,1.55,2.83,1.4,1.04,6.25,2.49,14.55,4.38,8.3,1.88,14.09,4.19,17.38,6.93,3.25,2.77,4.88,6.63,4.88,11.58,0,5.39-2.25,10.03-6.76,13.91-4.51,3.88-11.18,5.82-20.01,5.82-8.02,0-14.36-1.63-19.04-4.88-4.68-3.25-7.73-7.67-9.17-13.25Z"/>
  </g>
</svg>